<?xml version="1.0" encoding="UTF-8" standalone="no"?>
<!DOCTYPE svg PUBLIC "-//W3C//DTD SVG 1.1//EN" "http://www.w3.org/Graphics/SVG/1.1/DTD/svg11.dtd">
<svg xmlns="http://www.w3.org/2000/svg" version="1.1" viewBox="0.00 0.00 1200.00 404.00">
<g stroke-width="2.00" fill="none" stroke-linecap="butt">
<path stroke="#d6d6d6" stroke-opacity="0.776" vector-effect="non-scaling-stroke" d="
  M 85.47 215.83
  Q 77.46 222.00 69.46 228.18
  Q 64.76 231.82 56.51 230.53"
/>
<path stroke="#d6d6d6" stroke-opacity="0.776" vector-effect="non-scaling-stroke" d="
  M 1141.91 212.42
  Q 1135.18 212.13 1130.37 215.88
  Q 1122.82 221.78 1114.95 227.71"
/>
</g>
<path fill="#ffffff" d="
  M 85.47 215.83
  Q 77.46 222.00 69.46 228.18
  Q 64.76 231.82 56.51 230.53
  C 48.38 226.77 43.48 217.33 48.16 209.20
  Q 49.60 206.70 54.21 203.17
  Q 105.94 163.59 157.53 123.84
  Q 162.42 120.08 165.61 119.39
  C 177.32 116.85 187.51 130.06 181.38 140.65
  Q 179.85 143.30 175.14 146.91
  Q 130.29 181.36 85.47 215.83
  Z"
/>
<rect fill="#8c8c8c" fill-opacity="0.549" x="-12.42" y="-101.55" transform="translate(932.20,220.97) rotate(21.7)" width="24.84" height="203.10" rx="0.32"/>
<path fill="#8c8c8c" fill-opacity="0.549" d="
  M 1141.91 212.42
  Q 1135.18 212.13 1130.37 215.88
  Q 1122.82 221.78 1114.95 227.71
  Q 1065.58 190.24 1016.53 152.72
  C 1011.67 149.00 1010.58 141.39 1013.02 135.98
  C 1015.67 130.11 1022.81 126.55 1029.08 128.05
  Q 1032.01 128.75 1036.87 132.43
  Q 1089.42 172.23 1141.91 212.42
  Z"
/>
<rect fill="#ffffff" x="-7.81" y="-7.40" transform="translate(604.75,176.51) rotate(-0.1)" width="15.62" height="14.80" rx="5.34"/>
<path fill="#ffffff" d="
  M 201.10 179.83
  A 7.96 7.96 0.0 0 1 209.06 171.87
  L 239.24 171.87
  A 40.18 36.72 -90.0 0 1 275.96 212.05
  L 275.96 218.93
  A 40.18 36.72 -90.0 0 1 239.24 259.11
  L 209.06 259.11
  A 7.96 7.96 0.0 0 1 201.10 251.15
  L 201.10 179.83
  Z
  M 216.75 186.17
  L 216.75 244.55
  A 0.57 0.57 0.0 0 0 217.32 245.12
  L 237.88 245.12
  A 26.01 21.89 -90.0 0 0 259.77 219.11
  L 259.77 211.61
  A 26.01 21.89 90.0 0 0 237.88 185.60
  L 217.32 185.60
  A 0.57 0.57 0.0 0 0 216.75 186.17
  Z"
/>
<path fill="#ffffff" d="
  M 435.35 179.84
  A 7.97 7.97 0.0 0 1 443.32 171.87
  L 473.49 171.87
  A 40.19 36.72 90.0 0 1 510.21 212.06
  L 510.21 218.92
  A 40.19 36.72 -90.0 0 1 473.49 259.11
  L 443.32 259.11
  A 7.97 7.97 0.0 0 1 435.35 251.14
  L 435.35 179.84
  Z
  M 451.00 186.28
  L 451.00 244.44
  A 0.68 0.68 0.0 0 0 451.68 245.12
  L 472.13 245.12
  A 26.01 21.89 -90.0 0 0 494.02 219.11
  L 494.02 211.61
  A 26.01 21.89 90.0 0 0 472.13 185.60
  L 451.68 185.60
  A 0.68 0.68 0.0 0 0 451.00 186.28
  Z"
/>
<path fill="#ffffff" d="
  M 302.25 230.46
  C 305.45 245.96 322.25 250.43 334.62 242.72
  C 337.89 240.68 341.73 239.41 344.43 242.29
  C 349.43 247.60 344.36 252.84 339.42 255.42
  C 317.34 266.95 290.31 256.47 287.26 230.01
  Q 286.18 220.64 289.66 211.98
  C 299.17 188.35 328.31 183.44 344.10 203.87
  C 347.98 208.90 353.47 220.92 349.63 226.93
  Q 347.65 230.02 343.50 230.01
  Q 323.06 229.93 302.60 230.03
  Q 302.16 230.03 302.25 230.46
  Z
  M 302.52 218.00
  L 334.78 218.00
  A 0.11 0.11 0.0 0 0 334.89 217.89
  L 334.89 217.84
  A 16.08 13.06 0.0 0 0 318.81 204.78
  L 318.49 204.78
  A 16.08 13.06 -0.0 0 0 302.41 217.84
  L 302.41 217.89
  A 0.11 0.11 0.0 0 0 302.52 218.00
  Z"
/>
<path fill="#ffffff" d="
  M 536.50 230.53
  C 539.30 243.95 552.39 249.35 564.60 244.84
  C 567.36 243.83 570.54 240.85 574.24 240.59
  C 579.88 240.19 582.46 247.18 579.05 251.27
  Q 576.87 253.88 572.72 255.86
  C 552.79 265.35 527.86 258.13 522.44 234.93
  C 518.74 219.11 524.89 202.19 539.28 194.40
  C 559.32 183.55 584.20 199.45 585.03 222.15
  C 585.33 230.10 578.74 229.98 572.96 229.97
  Q 554.93 229.94 536.90 230.04
  Q 536.40 230.04 536.50 230.53
  Z
  M 536.77 218.03
  L 569.03 217.97
  A 0.11 0.11 0.0 0 0 569.14 217.86
  L 569.14 217.83
  A 16.08 13.06 -0.1 0 0 553.04 204.80
  L 552.72 204.80
  A 16.08 13.06 -0.1 0 0 536.66 217.89
  L 536.66 217.92
  A 0.11 0.11 0.0 0 0 536.77 218.03
  Z"
/>
<path fill="#ffffff" d="
  M 643.36 201.32
  Q 652.46 189.93 666.11 191.26
  C 674.45 192.06 680.23 196.31 682.86 204.21
  A 0.38 0.38 0.0 0 0 683.55 204.28
  Q 692.31 189.64 709.19 191.21
  C 723.70 192.55 726.68 206.67 726.80 218.75
  Q 726.95 234.81 726.80 250.87
  C 726.71 259.69 715.66 262.18 712.51 254.45
  Q 711.86 252.84 711.88 249.48
  Q 712.06 223.07 711.72 215.77
  C 710.92 198.94 685.10 201.84 684.99 219.00
  Q 684.88 234.94 684.87 250.88
  C 684.86 258.81 676.24 261.84 671.12 255.79
  C 669.76 254.19 669.83 250.20 669.86 247.59
  Q 670.12 224.61 669.68 215.78
  C 668.95 201.13 649.37 201.62 644.32 212.70
  Q 642.94 215.72 642.91 221.49
  Q 642.83 236.20 642.89 250.87
  C 642.94 261.51 627.94 262.11 627.91 250.29
  Q 627.83 225.39 627.89 200.50
  C 627.91 188.83 643.37 189.30 642.85 201.13
  Q 642.81 202.02 643.36 201.32
  Z"
/>
<path fill="#ffffff" d="
  M 755.23 230.48
  C 758.11 244.10 771.27 249.36 783.63 244.77
  C 786.56 243.67 789.02 240.86 792.94 240.77
  C 798.36 240.64 800.77 245.62 798.46 250.41
  Q 797.53 252.33 793.40 254.66
  C 768.13 268.88 738.50 253.79 740.27 223.22
  C 740.96 211.40 746.99 200.75 757.24 194.93
  C 777.55 183.41 802.52 198.88 803.76 221.42
  C 804.03 226.47 801.40 230.03 796.25 230.01
  Q 775.92 229.93 755.58 230.03
  Q 755.13 230.03 755.23 230.48
  Z
  M 755.52 218.00
  L 787.78 218.00
  A 0.11 0.11 0.0 0 0 787.89 217.89
  L 787.89 217.84
  A 16.08 13.06 -0.0 0 0 771.81 204.78
  L 771.49 204.78
  A 16.08 13.06 0.0 0 0 755.41 217.84
  L 755.41 217.89
  A 0.11 0.11 0.0 0 0 755.52 218.00
  Z"
/>
<path fill="#ffffff" d="
  M 832.60 200.69
  Q 840.43 190.19 852.98 191.10
  C 859.16 191.55 863.02 197.79 859.42 203.13
  C 855.04 209.60 847.35 202.22 841.17 204.97
  C 835.33 207.57 832.22 214.32 832.16 220.51
  Q 832.10 226.41 832.12 248.29
  Q 832.12 253.43 831.01 255.55
  C 828.63 260.06 820.56 260.11 818.10 255.32
  Q 817.17 253.51 817.16 249.54
  Q 817.08 224.83 817.14 200.12
  C 817.17 189.38 832.04 189.11 832.10 200.52
  Q 832.10 201.36 832.60 200.69
  Z"
/>
<rect fill="#ffffff" x="597.27" y="192.05" width="14.96" height="66.90" rx="7.30"/>
<path fill="#ffffff" d="
  M 391.26 236.19
  Q 399.37 217.83 407.27 199.39
  Q 408.85 195.71 410.13 194.45
  C 415.35 189.29 424.22 195.21 421.13 202.03
  Q 409.20 228.38 397.14 254.68
  C 395.00 259.35 389.13 260.51 385.38 257.17
  Q 384.01 255.95 382.33 252.30
  Q 371.53 228.68 360.82 205.02
  Q 358.97 200.92 359.04 198.79
  C 359.23 193.23 366.99 190.81 371.03 193.92
  Q 372.91 195.36 374.77 199.67
  Q 382.66 217.97 390.73 236.19
  Q 391.00 236.78 391.26 236.19
  Z"
/>
<path fill="#ffffff" d="
  M 1141.91 212.42
  Q 1152.09 215.31 1153.53 224.72
  C 1154.66 232.03 1150.61 235.90 1144.70 240.43
  Q 1096.29 277.61 1047.92 314.83
  Q 1041.38 319.86 1038.09 320.66
  C 1026.41 323.49 1016.85 310.57 1022.69 300.41
  Q 1024.62 297.07 1031.27 291.99
  Q 1073.30 259.89 1114.95 227.71
  Q 1122.82 221.78 1130.37 215.88
  Q 1135.18 212.13 1141.91 212.42
  Z"
/>
<path fill="#8c8c8c" fill-opacity="0.549" d="
  M 85.47 215.83
  Q 86.57 216.41 88.86 218.15
  Q 133.54 252.15 178.20 286.20
  Q 182.18 289.23 183.59 291.51
  C 188.71 299.80 184.44 310.62 175.25 313.42
  C 168.91 315.36 164.80 313.06 159.38 308.93
  Q 108.06 269.89 56.51 230.53
  Q 64.76 231.82 69.46 228.18
  Q 77.46 222.00 85.47 215.83
  Z"
/>
</svg>
