<?xml version="1.0" encoding="UTF-8" standalone="no"?>
<!DOCTYPE svg PUBLIC "-//W3C//DTD SVG 1.1//EN" "http://www.w3.org/Graphics/SVG/1.1/DTD/svg11.dtd">
<svg xmlns="http://www.w3.org/2000/svg" version="1.1" viewBox="0.00 0.00 1200.00 378.00">
<g stroke-width="2.00" fill="none" stroke-linecap="butt">
<path stroke="#d6d6d6" stroke-opacity="0.776" vector-effect="non-scaling-stroke" d="
  M 269.22 189.88
  Q 260.69 196.55 252.00 203.01
  Q 248.19 205.85 240.21 204.78"
/>
<path stroke="#d6d6d6" stroke-opacity="0.776" vector-effect="non-scaling-stroke" d="
  M 958.28 182.17
  Q 951.13 182.06 946.00 186.25
  Q 942.18 189.37 931.37 197.57"
/>
</g>
<rect fill="#8c8c8c" fill-opacity="0.549" x="-12.42" y="-101.56" transform="translate(748.63,190.79) rotate(21.7)" width="24.84" height="203.12" rx="0.26"/>
<path fill="#ffffff" d="
  M 269.22 189.88
  Q 260.69 196.55 252.00 203.01
  Q 248.19 205.85 240.21 204.78
  Q 230.55 200.28 229.95 191.03
  C 229.33 181.39 237.76 177.47 244.39 172.38
  Q 292.63 135.27 340.90 98.20
  Q 345.99 94.29 349.27 93.52
  C 361.74 90.61 371.66 105.78 363.99 116.25
  Q 362.64 118.10 357.96 121.69
  Q 313.57 155.75 269.22 189.88
  Z"
/>
<path fill="#8c8c8c" fill-opacity="0.549" d="
  M 958.28 182.17
  Q 951.13 182.06 946.00 186.25
  Q 942.18 189.37 931.37 197.57
  Q 884.47 161.85 837.70 126.25
  C 830.80 120.99 826.34 116.55 828.63 107.92
  C 831.21 98.23 843.07 94.50 851.29 100.73
  Q 904.70 141.27 958.28 182.17
  Z"
/>
<path fill="#ffffff" d="
  M 384.50 152.90
  A 7.96 7.96 0.0 0 1 392.43 144.91
  L 422.29 144.81
  A 39.97 37.00 89.8 0 1 459.43 184.65
  L 459.45 191.99
  A 39.97 37.00 89.8 0 1 422.59 232.09
  L 392.73 232.19
  A 7.96 7.96 0.0 0 1 384.74 224.26
  L 384.50 152.90
  Z
  M 400.25 159.19
  L 400.25 217.53
  A 0.59 0.59 0.0 0 0 400.84 218.12
  L 421.38 218.12
  A 26.01 21.89 -90.0 0 0 443.27 192.11
  L 443.27 184.61
  A 26.01 21.89 90.0 0 0 421.38 158.60
  L 400.84 158.60
  A 0.59 0.59 0.0 0 0 400.25 159.19
  Z"
/>
<path fill="#ffffff" d="
  M 618.85 152.83
  A 7.96 7.96 0.0 0 1 626.81 144.87
  L 656.98 144.87
  A 40.18 36.73 -90.0 0 1 693.71 185.05
  L 693.71 191.93
  A 40.18 36.73 -90.0 0 1 656.98 232.11
  L 626.81 232.11
  A 7.96 7.96 0.0 0 1 618.85 224.15
  L 618.85 152.83
  Z
  M 634.49 159.18
  L 634.49 217.54
  A 0.58 0.58 0.0 0 0 635.07 218.12
  L 655.61 218.12
  A 25.91 21.90 90.0 0 0 677.51 192.21
  L 677.51 184.51
  A 25.91 21.90 -90.0 0 0 655.61 158.60
  L 635.07 158.60
  A 0.58 0.58 0.0 0 0 634.49 159.18
  Z"
/>
<path fill="#ffffff" d="
  M 485.66 203.64
  C 488.23 214.59 497.41 220.66 508.29 219.08
  Q 514.11 218.23 519.78 214.56
  C 525.43 210.91 532.90 217.54 528.85 223.55
  Q 526.90 226.44 522.42 228.65
  C 509.50 235.04 494.30 234.63 482.85 225.77
  C 466.45 213.09 466.66 185.70 482.37 171.76
  C 502.12 154.22 532.24 168.62 534.24 193.94
  C 534.61 198.71 532.36 203.04 527.25 203.01
  Q 506.69 202.90 486.12 203.05
  Q 485.53 203.05 485.66 203.64
  Z
  M 486.04 191.03
  L 518.26 190.97
  A 0.12 0.12 0.0 0 0 518.38 190.85
  L 518.38 190.80
  A 16.08 13.05 -0.1 0 0 502.28 177.78
  L 501.98 177.78
  A 16.08 13.05 -0.1 0 0 485.92 190.86
  L 485.92 190.91
  A 0.12 0.12 0.0 0 0 486.04 191.03
  Z"
/>
<path fill="#ffffff" d="
  M 574.82 208.96
  Q 582.92 190.93 590.61 172.73
  Q 592.25 168.86 593.50 167.56
  C 598.82 162.07 607.76 168.08 604.42 175.50
  Q 599.80 185.78 581.15 226.68
  C 579.83 229.59 578.30 231.53 574.96 231.95
  C 570.08 232.57 567.86 229.74 565.89 225.43
  Q 554.67 200.85 543.50 176.25
  C 538.73 165.76 553.57 161.44 557.37 170.47
  Q 565.53 189.83 574.19 208.96
  Q 574.50 209.66 574.82 208.96
  Z"
/>
<path fill="#ffffff" d="
  M 958.28 182.17
  Q 968.66 185.31 970.04 194.72
  C 971.01 201.33 967.34 205.46 961.97 209.59
  Q 911.92 248.10 861.83 286.56
  Q 857.72 289.72 855.07 290.43
  C 842.66 293.77 832.62 279.61 839.73 268.97
  Q 841.08 266.94 845.10 263.86
  Q 888.22 230.79 931.37 197.57
  Q 942.18 189.37 946.00 186.25
  Q 951.13 182.06 958.28 182.17
  Z"
/>
<path fill="#8c8c8c" fill-opacity="0.549" d="
  M 269.22 189.88
  Q 314.35 224.24 359.27 258.46
  Q 366.05 263.62 367.73 266.56
  C 372.61 275.08 366.93 285.85 357.24 288.01
  C 350.51 289.51 346.47 285.77 339.99 280.85
  Q 290.20 243.01 240.21 204.78
  Q 248.19 205.85 252.00 203.01
  Q 260.69 196.55 269.22 189.88
  Z"
/>
</svg>
